<svg width="370" height="12" viewBox="0 0 370 12" fill="none" xmlns="http://www.w3.org/2000/svg">
<path fill-rule="evenodd" clip-rule="evenodd" d="M21 12H-20L-6.48324 2.12774C-2.59892 -0.709247 3.59892 -0.709249 7.48324 2.12774L21 12ZM62 12L48.4832 2.12774C44.5989 -0.709249 38.4011 -0.709247 34.5168 2.12774L21 12H62ZM103 12H62L75.5168 2.12774C79.4011 -0.709247 85.5989 -0.709249 89.4832 2.12774L103 12ZM144 12L130.483 2.12774C126.599 -0.709249 120.401 -0.709247 116.517 2.12774L103 12H144ZM185 12H144L157.517 2.12774C161.401 -0.709247 167.599 -0.709249 171.483 2.12774L185 12ZM226 12L212.483 2.12774C208.599 -0.709249 202.401 -0.709247 198.517 2.12774L185 12H226ZM267 12H226L239.517 2.12774C243.401 -0.709247 249.599 -0.709249 253.483 2.12774L267 12ZM308 12L294.483 2.12774C290.599 -0.709249 284.401 -0.709247 280.517 2.12774L267 12H308ZM349 12H308L321.517 2.12774C325.401 -0.709247 331.599 -0.709249 335.483 2.12774L349 12ZM349 12L362.517 2.12774C366.401 -0.709247 372.599 -0.709249 376.483 2.12774L390 12H349Z" fill="white"/>
</svg>
